<mxfile host="app.diagrams.net" agent="Mozilla/5.0 (Windows NT 10.0; Win64; x64) AppleWebKit/537.36 (KHTML, like Gecko) Chrome/128.0.0.0 Safari/537.36 Edg/128.0.0.0" version="24.7.12">
  <diagram id="C5RBs43oDa-KdzZeNtuy" name="Page-1">
    <mxGraphModel dx="1554" dy="855" grid="1" gridSize="10" guides="1" tooltips="1" connect="1" arrows="1" fold="1" page="1" pageScale="1" pageWidth="827" pageHeight="1169" math="0" shadow="0">
      <root>
        <mxCell id="WIyWlLk6GJQsqaUBKTNV-0" />
        <mxCell id="WIyWlLk6GJQsqaUBKTNV-1" parent="WIyWlLk6GJQsqaUBKTNV-0" />
        <mxCell id="_CQTEebbkpNrZHb61_R--0" value="显示屏检测台" style="rounded=1;whiteSpace=wrap;html=1;" vertex="1" parent="WIyWlLk6GJQsqaUBKTNV-1">
          <mxGeometry x="284" y="180" width="120" height="60" as="geometry" />
        </mxCell>
        <mxCell id="_CQTEebbkpNrZHb61_R--9" value="" style="edgeStyle=orthogonalEdgeStyle;rounded=0;orthogonalLoop=1;jettySize=auto;html=1;" edge="1" parent="WIyWlLk6GJQsqaUBKTNV-1" source="_CQTEebbkpNrZHb61_R--4" target="_CQTEebbkpNrZHb61_R--8">
          <mxGeometry relative="1" as="geometry" />
        </mxCell>
        <mxCell id="_CQTEebbkpNrZHb61_R--10" value="以太网" style="edgeLabel;html=1;align=center;verticalAlign=middle;resizable=0;points=[];" vertex="1" connectable="0" parent="_CQTEebbkpNrZHb61_R--9">
          <mxGeometry x="-0.11" y="2" relative="1" as="geometry">
            <mxPoint as="offset" />
          </mxGeometry>
        </mxCell>
        <mxCell id="_CQTEebbkpNrZHb61_R--4" value="RK3568工装板" style="rounded=1;whiteSpace=wrap;html=1;" vertex="1" parent="WIyWlLk6GJQsqaUBKTNV-1">
          <mxGeometry x="284" y="320" width="120" height="60" as="geometry" />
        </mxCell>
        <mxCell id="_CQTEebbkpNrZHb61_R--11" style="edgeStyle=orthogonalEdgeStyle;rounded=0;orthogonalLoop=1;jettySize=auto;html=1;entryX=1;entryY=0.5;entryDx=0;entryDy=0;" edge="1" parent="WIyWlLk6GJQsqaUBKTNV-1" source="_CQTEebbkpNrZHb61_R--6" target="_CQTEebbkpNrZHb61_R--8">
          <mxGeometry relative="1" as="geometry">
            <Array as="points">
              <mxPoint x="544" y="490" />
            </Array>
          </mxGeometry>
        </mxCell>
        <mxCell id="_CQTEebbkpNrZHb61_R--12" value="USB" style="edgeLabel;html=1;align=center;verticalAlign=middle;resizable=0;points=[];" vertex="1" connectable="0" parent="_CQTEebbkpNrZHb61_R--11">
          <mxGeometry x="-0.5097" y="2" relative="1" as="geometry">
            <mxPoint as="offset" />
          </mxGeometry>
        </mxCell>
        <mxCell id="_CQTEebbkpNrZHb61_R--6" value="自动检测台" style="rounded=1;whiteSpace=wrap;html=1;" vertex="1" parent="WIyWlLk6GJQsqaUBKTNV-1">
          <mxGeometry x="484" y="180" width="120" height="60" as="geometry" />
        </mxCell>
        <mxCell id="_CQTEebbkpNrZHb61_R--8" value="PC&lt;div&gt;Labview\GOI&lt;/div&gt;" style="rounded=1;whiteSpace=wrap;html=1;" vertex="1" parent="WIyWlLk6GJQsqaUBKTNV-1">
          <mxGeometry x="284" y="460" width="120" height="60" as="geometry" />
        </mxCell>
        <mxCell id="_CQTEebbkpNrZHb61_R--13" value="" style="endArrow=classic;startArrow=classic;html=1;rounded=0;entryX=0;entryY=0.5;entryDx=0;entryDy=0;exitX=1;exitY=0.5;exitDx=0;exitDy=0;" edge="1" parent="WIyWlLk6GJQsqaUBKTNV-1" source="_CQTEebbkpNrZHb61_R--0" target="_CQTEebbkpNrZHb61_R--6">
          <mxGeometry width="50" height="50" relative="1" as="geometry">
            <mxPoint x="424" y="160" as="sourcePoint" />
            <mxPoint x="474" y="110" as="targetPoint" />
          </mxGeometry>
        </mxCell>
        <mxCell id="_CQTEebbkpNrZHb61_R--16" value="电磁阀" style="edgeLabel;html=1;align=center;verticalAlign=middle;resizable=0;points=[];" vertex="1" connectable="0" parent="_CQTEebbkpNrZHb61_R--13">
          <mxGeometry x="0.195" y="-2" relative="1" as="geometry">
            <mxPoint as="offset" />
          </mxGeometry>
        </mxCell>
        <mxCell id="_CQTEebbkpNrZHb61_R--14" value="" style="endArrow=classic;startArrow=classic;html=1;rounded=0;exitX=0.5;exitY=0;exitDx=0;exitDy=0;" edge="1" parent="WIyWlLk6GJQsqaUBKTNV-1" source="_CQTEebbkpNrZHb61_R--4">
          <mxGeometry width="50" height="50" relative="1" as="geometry">
            <mxPoint x="294" y="290" as="sourcePoint" />
            <mxPoint x="344" y="240" as="targetPoint" />
          </mxGeometry>
        </mxCell>
        <mxCell id="_CQTEebbkpNrZHb61_R--15" value="视频信号" style="edgeLabel;html=1;align=center;verticalAlign=middle;resizable=0;points=[];" vertex="1" connectable="0" parent="_CQTEebbkpNrZHb61_R--14">
          <mxGeometry x="0.01" y="3" relative="1" as="geometry">
            <mxPoint as="offset" />
          </mxGeometry>
        </mxCell>
      </root>
    </mxGraphModel>
  </diagram>
</mxfile>
